:SAMPLES-PER-SECOND 30
:FULLY-SPECIFIED
:DEGREES
338
root  35.229 38.5445 -0.0906927 -1.68646 57.2232 1.73436
RightUpLeg  4.36411 -2.84884 -8.1361
RightLeg  29.3855 1.4019 0.61101
RightFoot  -20.038 0.449572 8.0361
RightToes  0.00048216 0.542163 -0.142577
Spine  18.6737 -1.53147 10.4314
Spine1  12.2694 -0.827694 2.93519
HEad  13.9196 -9.60194 2.67217
LeftShoulder1  8.7634 -13.7831 -44.1376
LeftArm  -1.59088 0.562615 -29.2639
LeftForeArm  33.2826 -4.49068 -8.87329
LeftHand  -0.25398 0.0180481 5.50724
RightShoulder  3.44341 7.67749 24.6638
RightArm  -12.2478 40.2768 23.9792
RightForeArm  -1.46072 21.6736 5.03272
RightHand  -1.30149 4.14374 -16.0888
LeftUpLeg  -20.089 15.7903 1.15295
LeftLeg  10.9364 5.94034 -1.96666
LeftFoot  8.6776 0.291152 -1.91945
LeftToes  1.06243e-005 4.65856e-005 -8.18505e-006
339
root  36.5218 38.3497 -0.00350077 0.0517048 54.6799 4.98692
RightUpLeg  -0.351337 0.102868 -11.0894
RightLeg  41.2902 0.136205 -0.197764
RightFoot  -13.7049 0.15128 10.683
RightToes  0.00048216 0.542163 -0.142577
Spine  21.5293 -1.13575 7.80706
Spine1  12.8706 -0.661828 3.10987
HEad  12.6444 -9.4849 3.55079
LeftShoulder1  9.1341 -14.232 -44.8747
LeftArm  -1.85763 1.95083 -27.9356
LeftForeArm  33.7463 -3.09115 -8.70831
LeftHand  -0.25398 0.0180481 5.50724
RightShoulder  3.48532 7.81005 24.6744
RightArm  -12.8524 43.2003 25.1418
RightForeArm  -0.246315 24.4593 5.21139
RightHand  -1.28628 3.97735 -16.169
LeftUpLeg  -20.6902 24.1788 -3.43577
LeftLeg  16.5177 -0.792532 -0.477503
LeftFoot  7.16233 -0.0973401 0.333822
LeftToes  1.06243e-005 4.65856e-005 -8.18505e-006
340
root  37.7243 38.3423 0.0505106 2.22099 52.8837 8.44468
RightUpLeg  -6.80878 0.295361 -14.2604
RightLeg  52.872 -1.30528 -2.25064
RightFoot  -3.46415 -0.523076 7.68924
RightToes  0.00048216 0.542163 -0.142577
Spine  24.4015 -1.18245 5.3763
Spine1  13.4352 -1.0224 3.17595
HEad  11.401 -8.95113 3.58947
LeftShoulder1  9.4957 -14.771 -45.2926
LeftArm  -1.8766 2.82792 -27.2025
LeftForeArm  33.8067 -2.684 -8.68893
LeftHand  -0.25398 0.0180481 5.50724
RightShoulder  3.52484 7.99659 24.5105
RightArm  -13.1299 45.7479 27.4528
RightForeArm  1.58738 26.7762 5.67891
RightHand  -1.44506 4.44726 -17.2722
LeftUpLeg  -19.838 27.8451 -6.11581
LeftLeg  19.6104 -2.13984 -0.430505
LeftFoot  3.3303 -0.0847245 0.46874
LeftToes  1.06243e-005 4.65856e-005 -8.18505e-006
341
root  38.8946 38.4338 0.0495752 3.84255 51.9098 10.2937
RightUpLeg  -13.3046 -1.85147 -15.8648
RightLeg  60.2664 -2.17662 -4.587
RightFoot  2.86408 -0.341055 2.6943
RightToes  0.00048216 0.542163 -0.142577
Spine  26.6732 -1.84967 5.04172
Spine1  13.5151 -1.61542 2.88448
HEad  10.2867 -8.35074 2.77496
LeftShoulder1  9.724 -15.1586 -45.422
LeftArm  -1.67177 2.87221 -27.2801
LeftForeArm  33.8977 -3.01137 -8.77172
LeftHand  -0.25398 0.0180481 5.50724
RightShoulder  3.57994 8.14811 24.5878
RightArm  -11.9206 47.5938 29.6676
RightForeArm  2.76029 28.7038 6.0728
RightHand  -1.6078 4.95775 -18.2627
LeftUpLeg  -18.6341 29.3961 -7.77791
LeftLeg  20.6272 -2.18006 -0.55334
LeftFoot  -0.0679424 0.0217891 -0.206263
LeftToes  1.06243e-005 4.65856e-005 -8.18505e-006
342
root  40.0667 38.6782 0.0351467 4.55124 50.8538 10.2975
RightUpLeg  -18.8954 -4.72009 -15.3693
RightLeg  62.0701 -2.46 -5.56835
RightFoot  2.99611 -0.103199 0.992453
RightToes  0.00048216 0.542163 -0.142577
Spine  28.4787 -2.63993 6.72546
Spine1  13.4672 -1.78777 2.48486
HEad  9.04671 -8.25863 1.75755
LeftShoulder1  9.8333 -15.3594 -45.4437
LeftArm  -1.78826 1.79437 -28.1816
LeftForeArm  33.9149 -3.72195 -8.76491
LeftHand  -0.25398 0.0180481 5.50724
RightShoulder  3.70578 8.34935 25.1528
RightArm  -9.85213 48.7807 30.3805
RightForeArm  3.01098 30.0345 6.38302
RightHand  -1.63797 5.04243 -18.4453
LeftUpLeg  -17.0067 29.9176 -8.49658
LeftLeg  19.4236 -1.72932 -0.427962
LeftFoot  -1.36847 0.0444907 -0.410636
LeftToes  1.06243e-005 4.65856e-005 -8.18505e-006
343
root  41.1882 38.9704 0.0928625 5.1614 49.0691 10.0401
RightUpLeg  -23.4391 -6.90898 -13.7062
RightLeg  58.8503 -2.32257 -4.65541
RightFoot  1.07612 -0.338219 3.18816
RightToes  0.00048216 0.542163 -0.142577
Spine  30.2706 -2.90094 8.18022
Spine1  13.7085 -1.46889 2.29747
HEad  7.66362 -8.56165 1.08236
LeftShoulder1  9.88358 -15.5164 -45.2929
LeftArm  -2.7099 0.154732 -29.7081
LeftForeArm  33.3086 -5.10402 -8.49559
LeftHand  -0.25398 0.0180481 5.50724
RightShoulder  3.84668 8.60681 25.6754
RightArm  -6.94603 49.8758 30.5019
RightForeArm  2.27041 29.618 6.30806
RightHand  -1.68661 5.25313 -18.611
LeftUpLeg  -15.0833 29.0092 -8.4078
LeftLeg  17.6981 0.831099 -0.555712
LeftFoot  -2.09504 0.0192141 -0.0754731
LeftToes  1.06243e-005 4.65856e-005 -8.18505e-006
344
root  42.2772 39.2016 0.243656 6.20974 47.0429 10.273
RightUpLeg  -26.7009 -8.94845 -11.3347
RightLeg  51.7079 -2.44334 -3.66911
RightFoot  -0.211447 -0.484592 4.91658
RightToes  0.00048216 0.542163 -0.142577
Spine  31.9306 -2.95228 8.55193
Spine1  14.0079 -1.23487 2.26177
HEad  6.46263 -8.43053 0.726054
LeftShoulder1  9.91797 -15.7157 -44.9655
LeftArm  -3.58567 -0.785357 -31.1122
LeftForeArm  31.2822 -8.55131 -7.75649
LeftHand  -0.25398 0.0180481 5.50724
RightShoulder  3.9215 8.81526 25.7477
RightArm  -2.05008 51.4588 32.2813
RightForeArm  0.863329 26.1129 5.56913
RightHand  -1.83358 5.8749 -19.1232
LeftUpLeg  -12.8995 25.0126 -7.66545
LeftLeg  16.126 7.00473 -1.46945
LeftFoot  -3.55994 0.00808504 0.191632
LeftToes  1.06243e-005 4.65856e-005 -8.18505e-006
345
root  43.4014 39.347 0.451667 7.53576 45.3828 10.5343
RightUpLeg  -28.5833 -12.3577 -7.98266
RightLeg  41.3758 -3.32548 -3.39747
RightFoot  -1.62541 -0.321976 3.66774
RightToes  0.00048216 0.542163 -0.142577
Spine  32.9489 -3.44918 8.81264
Spine1  14.1596 -1.44789 1.92941
HEad  5.6029 -7.47033 0.553164
LeftShoulder1  9.96388 -15.8847 -44.7706
LeftArm  -2.08661 -0.429487 -31.6519
LeftForeArm  25.882 -15.0556 -5.9266
LeftHand  -0.25398 0.0180481 5.50724
RightShoulder  3.98778 9.04428 25.6917
RightArm  1.75691 53.5075 36.0618
RightForeArm  2.37382 19.1733 5.54028
RightHand  -1.80793 5.90797 -18.7991
LeftUpLeg  -10.8808 18.5468 -6.97257
LeftLeg  14.161 15.0672 -2.80278
LeftFoot  -5.23891 0.0364359 -0.104839
LeftToes  1.06243e-005 4.65856e-005 -8.18505e-006
346
root  44.5586 39.3793 0.739389 9.29823 43.9145 11.1315
RightUpLeg  -29.7623 -19.1605 -3.22492
RightLeg  28.6634 -3.31927 -2.67754
RightFoot  -2.10584 -0.347473 4.06735
RightToes  0.00048216 0.542163 -0.142577
Spine  33.2741 -4.17646 9.00971
Spine1  14.5054 -1.84338 1.14485
HEad  4.82884 -6.39306 0.757032
LeftShoulder1  9.97865 -15.8902 -44.827
LeftArm  -1.8334 0.380013 -31.388
LeftForeArm  20.3927 -22.6036 -4.00492
LeftHand  -0.25398 0.0180481 5.50724
RightShoulder  4.13635 9.48353 25.7632
RightArm  -3.5481 55.3748 39.7315
RightForeArm  12.0018 9.71028 7.68038
RightHand  -1.43525 4.60418 -16.87
LeftUpLeg  -9.77134 13.3278 -7.41733
LeftLeg  12.6827 21.2606 -3.6999
LeftFoot  -6.62985 0.0687218 -0.709458
LeftToes  1.06243e-005 4.65856e-005 -8.18505e-006
347
root  45.7009 39.2794 1.14912 11.5538 42.1957 12.7206
RightUpLeg  -29.7967 -25.824 0.424414
RightLeg  15.6324 -6.72799 -0.0390456
RightFoot  0.262338 -0.943517 9.11963
RightToes  0.00048216 0.542163 -0.142577
Spine  33.3732 -4.42068 8.43635
Spine1  15.2235 -1.95251 0.353679
HEad  3.90476 -6.26662 1.46515
LeftShoulder1  9.8933 -15.7496 -44.7656
LeftArm  -7.26791 0.39633 -31.2078
LeftForeArm  19.714 -28.1075 -4.94607
LeftHand  -0.25398 0.0180481 5.50724
RightShoulder  4.32776 10.0811 25.7709
RightArm  -7.20766 56.2908 42.3386
RightForeArm  16.0651 1.05618 6.84822
RightHand  -1.02002 2.78803 -14.711
LeftUpLeg  -9.4948 11.8866 -9.38621
LeftLeg  13.0015 23.9547 -3.58505
LeftFoot  -8.18959 0.0679573 -0.621208
LeftToes  1.06243e-005 4.65856e-005 -8.18505e-006
